{
  "accessors": [
    {
      "bufferView": 2,
      "componentType": 5126,
      "count": 221,
      "max": [
        1.2277405261993408,
        0.5267444252967834,
        2.0735249519348145
      ],
      "min": [
        -1.2277405261993408,
        -0.007624478545039892,
        -0.9037696123123169
      ],
      "type": "VEC3"
    },
    {
      "bufferView": 2,
      "byteOffset": 2652,
      "componentType": 5126,
      "count": 221,
      "max": [
        0.9982415437698364,
        1.0,
        1.0
      ],
      "min": [
        -0.9982415437698364,
        -0.7036163806915283,
        -0.9969839453697205
      ],
      "type": "VEC3"
    },
    {
      "bufferView": 1,
      "componentType": 5126,
      "count": 221,
      "max": [
        0.0,
        0.0
      ],
      "min": [
        0.0,
        0.0
      ],
      "type": "VEC2"
    },
    {
      "bufferView": 0,
      "componentType": 5125,
      "count": 1152,
      "type": "SCALAR"
    },
    {
      "bufferView": 2,
      "byteOffset": 5304,
      "componentType": 5126,
      "count": 9,
      "max": [
        0.5455886721611023,
        0.5265622138977051,
        0.8335220813751221
      ],
      "min": [
        -0.5713128447532654,
        0.5265382528305054,
        -0.4279920160770416
      ],
      "type": "VEC3"
    },
    {
      "bufferView": 2,
      "byteOffset": 5412,
      "componentType": 5126,
      "count": 9,
      "max": [
        1.8027350279226084e-07,
        1.0,
        2.112920265062712e-05
      ],
      "min": [
        -4.066126280122262e-08,
        1.0,
        -6.71228626742959e-05
      ],
      "type": "VEC3"
    },
    {
      "bufferView": 1,
      "byteOffset": 1768,
      "componentType": 5126,
      "count": 9,
      "max": [
        0.9962777495384216,
        0.9948358535766602
      ],
      "min": [
        0.004796596243977547,
        0.006192438770085573
      ],
      "type": "VEC2"
    },
    {
      "bufferView": 0,
      "byteOffset": 4608,
      "componentType": 5125,
      "count": 24,
      "type": "SCALAR"
    },
    {
      "bufferView": 2,
      "byteOffset": 5520,
      "componentType": 5126,
      "count": 1325,
      "max": [
        1.553757667541504,
        2.938948154449463,
        1.0918700695037842
      ],
      "min": [
        -1.6143851280212402,
        -3.391707420349121,
        -1.0918703079223633
      ],
      "type": "VEC3"
    },
    {
      "bufferView": 2,
      "byteOffset": 21420,
      "componentType": 5126,
      "count": 1325,
      "max": [
        1.0,
        0.8252045512199402,
        1.0
      ],
      "min": [
        -1.0,
        -0.7090558409690857,
        -1.0
      ],
      "type": "VEC3"
    },
    {
      "bufferView": 1,
      "byteOffset": 1840,
      "componentType": 5126,
      "count": 1325,
      "max": [
        1.0,
        1.0
      ],
      "min": [
        0.0,
        0.01000000536441803
      ],
      "type": "VEC2"
    },
    {
      "bufferView": 0,
      "byteOffset": 4704,
      "componentType": 5125,
      "count": 4647,
      "type": "SCALAR"
    },
    {
      "bufferView": 2,
      "byteOffset": 37320,
      "componentType": 5126,
      "count": 354,
      "max": [
        1.553757667541504,
        -1.5918679237365723,
        1.0553566217422485
      ],
      "min": [
        -1.6143851280212402,
        -2.7917609214782715,
        -1.0918703079223633
      ],
      "type": "VEC3"
    },
    {
      "bufferView": 2,
      "byteOffset": 41568,
      "componentType": 5126,
      "count": 354,
      "max": [
        1.0,
        0.0,
        0.9788321852684021
      ],
      "min": [
        -1.0,
        0.0,
        -1.0
      ],
      "type": "VEC3"
    },
    {
      "bufferView": 1,
      "byteOffset": 12440,
      "componentType": 5126,
      "count": 354,
      "max": [
        1.0,
        0.875
      ],
      "min": [
        0.0,
        0.625
      ],
      "type": "VEC2"
    },
    {
      "bufferView": 0,
      "byteOffset": 23292,
      "componentType": 5125,
      "count": 1392,
      "type": "SCALAR"
    },
    {
      "bufferView": 2,
      "byteOffset": 45816,
      "componentType": 5126,
      "count": 39,
      "max": [
        0.3530134856700897,
        -1.5918679237365723,
        1.0918700695037842
      ],
      "min": [
        -0.5622214674949646,
        -2.7917609214782715,
        1.024289846420288
      ],
      "type": "VEC3"
    },
    {
      "bufferView": 2,
      "byteOffset": 46284,
      "componentType": 5126,
      "count": 39,
      "max": [
        0.20466531813144684,
        0.0,
        1.0
      ],
      "min": [
        -0.20466530323028564,
        0.0,
        0.9788320064544678
      ],
      "type": "VEC3"
    },
    {
      "bufferView": 1,
      "byteOffset": 15272,
      "componentType": 5126,
      "count": 39,
      "max": [
        1.0369908809661865,
        0.937268853187561
      ],
      "min": [
        -0.04475980997085571,
        0.06273113936185837
      ],
      "type": "VEC2"
    },
    {
      "bufferView": 0,
      "byteOffset": 28860,
      "componentType": 5125,
      "count": 144,
      "type": "SCALAR"
    },
    {
      "bufferView": 2,
      "byteOffset": 46752,
      "componentType": 5126,
      "count": 69,
      "max": [
        0.3698308765888214,
        2.5990352630615234,
        0.7200165390968323
      ],
      "min": [
        -0.21794995665550232,
        1.6990501880645752,
        0.6239334344863892
      ],
      "type": "VEC3"
    },
    {
      "bufferView": 2,
      "byteOffset": 47580,
      "componentType": 5126,
      "count": 69,
      "max": [
        0.42023324966430664,
        0.10911888629198074,
        0.9995207786560059
      ],
      "min": [
        -0.2009739875793457,
        -0.10415678471326828,
        0.906518280506134
      ],
      "type": "VEC3"
    },
    {
      "bufferView": 1,
      "byteOffset": 15584,
      "componentType": 5126,
      "count": 69,
      "max": [
        0.5806772708892822,
        0.9121327996253967
      ],
      "min": [
        0.44931820034980774,
        0.6979019641876221
      ],
      "type": "VEC2"
    },
    {
      "bufferView": 0,
      "byteOffset": 29436,
      "componentType": 5125,
      "count": 201,
      "type": "SCALAR"
    },
    {
      "bufferView": 2,
      "byteOffset": 48408,
      "componentType": 5126,
      "count": 46,
      "max": [
        0.3546009063720703,
        2.5751585960388184,
        0.7180102467536926
      ],
      "min": [
        -0.202458918094635,
        1.7222124338150024,
        0.6269490122795105
      ],
      "type": "VEC3"
    },
    {
      "bufferView": 2,
      "byteOffset": 48960,
      "componentType": 5126,
      "count": 46,
      "max": [
        0.3240537643432617,
        0.10911888629198074,
        0.999422550201416
      ],
      "min": [
        -0.18224328756332397,
        -0.10415678471326828,
        0.9457504749298096
      ],
      "type": "VEC3"
    },
    {
      "bufferView": 1,
      "byteOffset": 16136,
      "componentType": 5126,
      "count": 46,
      "max": [
        0.5806772708892822,
        0.9121327996253967
      ],
      "min": [
        0.44931820034980774,
        0.6979019641876221
      ],
      "type": "VEC2"
    },
    {
      "bufferView": 0,
      "byteOffset": 30240,
      "componentType": 5125,
      "count": 138,
      "type": "SCALAR"
    },
    {
      "bufferView": 2,
      "byteOffset": 49512,
      "componentType": 5126,
      "count": 168,
      "max": [
        1.2464394569396973,
        0.5268608331680298,
        2.199634313583374
      ],
      "min": [
        -1.2476390600204468,
        -0.0834796205163002,
        -0.9038041830062866
      ],
      "type": "VEC3"
    },
    {
      "bufferView": 2,
      "byteOffset": 51528,
      "componentType": 5126,
      "count": 168,
      "max": [
        0.7377921342849731,
        0.7103989124298096,
        0.7486597299575806
      ],
      "min": [
        -0.7378050684928894,
        -0.7104653120040894,
        -0.7476449608802795
      ],
      "type": "VEC3"
    },
    {
      "bufferView": 1,
      "byteOffset": 16504,
      "componentType": 5126,
      "count": 168,
      "max": [
        0.0,
        0.0
      ],
      "min": [
        0.0,
        0.0
      ],
      "type": "VEC2"
    },
    {
      "bufferView": 0,
      "byteOffset": 30792,
      "componentType": 5125,
      "count": 918,
      "type": "SCALAR"
    },
    {
      "bufferView": 2,
      "byteOffset": 53544,
      "componentType": 5126,
      "count": 884,
      "max": [
        0.7870657444000244,
        0.7870657444000244,
        0.1818487048149109
      ],
      "min": [
        -0.7870657444000244,
        -0.7870657444000244,
        -0.643244743347168
      ],
      "type": "VEC3"
    },
    {
      "bufferView": 2,
      "byteOffset": 64152,
      "componentType": 5126,
      "count": 884,
      "max": [
        0.9975758194923401,
        0.9975758194923401,
        0.9999974370002747
      ],
      "min": [
        -0.9975758790969849,
        -0.9975758194923401,
        -0.9338198900222778
      ],
      "type": "VEC3"
    },
    {
      "bufferView": 1,
      "byteOffset": 17848,
      "componentType": 5126,
      "count": 884,
      "max": [
        1.0,
        0.643244743347168
      ],
      "min": [
        0.0,
        -0.1818487048149109
      ],
      "type": "VEC2"
    },
    {
      "bufferView": 0,
      "byteOffset": 34464,
      "componentType": 5125,
      "count": 4968,
      "type": "SCALAR"
    }
  ],
  "asset": {
    "extras": {
      "author": "Aya Dja (https://sketchfab.com/ayadja1977)",
      "license": "CC-BY-4.0 (http://creativecommons.org/licenses/by/4.0/)",
      "source": "https://sketchfab.com/3d-models/coco-mademoiselle-chanel-paris-parfum-d9b35bfc653f42bda2921b7cd2944de7",
      "title": "Coco mademoiselle Chanel paris parfum"
    },
    "generator": "Sketchfab-15.30.0",
    "version": "2.0"
  },
  "bufferViews": [
    {
      "buffer": 0,
      "byteLength": 54336,
      "name": "floatBufferViews",
      "target": 34963
    },
    {
      "buffer": 0,
      "byteLength": 24920,
      "byteOffset": 54336,
      "byteStride": 8,
      "name": "floatBufferViews",
      "target": 34962
    },
    {
      "buffer": 0,
      "byteLength": 74760,
      "byteOffset": 79256,
      "byteStride": 12,
      "name": "floatBufferViews",
      "target": 34962
    }
  ],
  "buffers": [
    {
      "byteLength": 154016,
      "uri": "scene.bin"
    }
  ],
  "extensionsUsed": [
    "KHR_materials_transmission",
    "KHR_materials_specular"
  ],
  "images": [
    {
      "uri": "textures/logo2_baseColor.png"
    },
    {
      "uri": "textures/logo_baseColor.jpeg"
    }
  ],
  "materials": [
    {
      "alphaMode": "BLEND",
      "doubleSided": true,
      "extensions": {
        "KHR_materials_transmission": {
          "transmissionFactor": 1.0
        }
      },
      "name": "glass",
      "pbrMetallicRoughness": {
        "baseColorFactor": [
          1.0,
          1.0,
          1.0,
          0.25
        ],
        "metallicFactor": 0.24190658462172757,
        "roughnessFactor": 0.0
      }
    },
    {
      "doubleSided": true,
      "extensions": {
        "KHR_materials_transmission": {
          "transmissionFactor": 0.0
        }
      },
      "name": "logo2",
      "pbrMetallicRoughness": {
        "baseColorTexture": {
          "index": 0
        },
        "metallicFactor": 0.0,
        "roughnessFactor": 0.7275849614856988
      }
    },
    {
      "doubleSided": true,
      "name": "gold",
      "pbrMetallicRoughness": {
        "baseColorFactor": [
          1.0,
          0.735917,
          0.280184,
          1.0
        ],
        "metallicFactor": 0.8,
        "roughnessFactor": 0.3
      }
    },
    {
      "doubleSided": true,
      "name": "Material.001",
      "pbrMetallicRoughness": {
        "metallicFactor": 0.0,
        "roughnessFactor": 0.5
      }
    },
    {
      "doubleSided": true,
      "name": "logo",
      "pbrMetallicRoughness": {
        "baseColorTexture": {
          "index": 1
        },
        "metallicFactor": 0.0,
        "roughnessFactor": 0.5
      }
    },
    {
      "doubleSided": true,
      "name": "black",
      "pbrMetallicRoughness": {
        "baseColorFactor": [
          0.0,
          0.0,
          0.0,
          1.0
        ],
        "metallicFactor": 0.0,
        "roughnessFactor": 0.5
      }
    },
    {
      "doubleSided": true,
      "name": "white",
      "pbrMetallicRoughness": {
        "baseColorFactor": [
          0.8,
          0.8,
          0.8,
          1.0
        ],
        "metallicFactor": 0.7,
        "roughnessFactor": 0.4
      }
    },
    {
      "alphaMode": "BLEND",
      "doubleSided": true,
      "extensions": {
        "KHR_materials_specular": {
          "specularColorFactor": [
            1.0,
            1.0,
            1.0
          ],
          "specularFactor": 0.45546576186974297
        }
      },
      "name": "parfum",
      "pbrMetallicRoughness": {
        "baseColorFactor": [
          0.6281647869090343,
          0.034668774097750155,
          0.08190515502338114,
          0.05275417048777106
        ],
        "metallicFactor": 0.0,
        "roughnessFactor": 0.0
      }
    }
  ],
  "meshes": [
    {
      "name": "Object_0",
      "primitives": [
        {
          "attributes": {
            "NORMAL": 1,
            "POSITION": 0,
            "TEXCOORD_0": 2
          },
          "indices": 3,
          "material": 0,
          "mode": 4
        }
      ]
    },
    {
      "name": "Object_1",
      "primitives": [
        {
          "attributes": {
            "NORMAL": 5,
            "POSITION": 4,
            "TEXCOORD_0": 6
          },
          "indices": 7,
          "material": 1,
          "mode": 4
        }
      ]
    },
    {
      "name": "Object_2",
      "primitives": [
        {
          "attributes": {
            "NORMAL": 9,
            "POSITION": 8,
            "TEXCOORD_0": 10
          },
          "indices": 11,
          "material": 2,
          "mode": 4
        }
      ]
    },
    {
      "name": "Object_3",
      "primitives": [
        {
          "attributes": {
            "NORMAL": 13,
            "POSITION": 12,
            "TEXCOORD_0": 14
          },
          "indices": 15,
          "material": 3,
          "mode": 4
        }
      ]
    },
    {
      "name": "Object_4",
      "primitives": [
        {
          "attributes": {
            "NORMAL": 17,
            "POSITION": 16,
            "TEXCOORD_0": 18
          },
          "indices": 19,
          "material": 4,
          "mode": 4
        }
      ]
    },
    {
      "name": "Object_5",
      "primitives": [
        {
          "attributes": {
            "NORMAL": 21,
            "POSITION": 20,
            "TEXCOORD_0": 22
          },
          "indices": 23,
          "material": 5,
          "mode": 4
        }
      ]
    },
    {
      "name": "Object_6",
      "primitives": [
        {
          "attributes": {
            "NORMAL": 25,
            "POSITION": 24,
            "TEXCOORD_0": 26
          },
          "indices": 27,
          "material": 6,
          "mode": 4
        }
      ]
    },
    {
      "name": "Object_7",
      "primitives": [
        {
          "attributes": {
            "NORMAL": 29,
            "POSITION": 28,
            "TEXCOORD_0": 30
          },
          "indices": 31,
          "material": 7,
          "mode": 4
        }
      ]
    },
    {
      "name": "Object_8",
      "primitives": [
        {
          "attributes": {
            "NORMAL": 33,
            "POSITION": 32,
            "TEXCOORD_0": 34
          },
          "indices": 35,
          "material": 0,
          "mode": 4
        }
      ]
    }
  ],
  "nodes": [
    {
      "children": [
        1
      ],
      "matrix": [
        1.0,
        0.0,
        0.0,
        0.0,
        0.0,
        2.220446049250313e-16,
        -1.0,
        0.0,
        0.0,
        1.0,
        2.220446049250313e-16,
        0.0,
        0.0,
        0.0,
        0.0,
        1.0
      ],
      "name": "Sketchfab_model"
    },
    {
      "children": [
        2
      ],
      "name": "root"
    },
    {
      "children": [
        3,
        6,
        12,
        14
      ],
      "matrix": [
        1.0,
        0.0,
        0.0,
        0.0,
        0.0,
        2.220446049250313e-16,
        1.0,
        0.0,
        0.0,
        -1.0,
        2.220446049250313e-16,
        0.0,
        0.0,
        0.0,
        0.0,
        1.0
      ],
      "name": "GLTF_SceneRootNode"
    },
    {
      "children": [
        4,
        5
      ],
      "matrix": [
        1.0,
        0.0,
        0.0,
        0.0,
        0.0,
        1.1166733503341675,
        0.0,
        0.0,
        0.0,
        0.0,
        1.0,
        0.0,
        0.0,
        -0.05294187366962433,
        0.0,
        1.0
      ],
      "name": "glass_3"
    },
    {
      "mesh": 0,
      "name": "Object_4"
    },
    {
      "mesh": 1,
      "name": "Object_5"
    },
    {
      "children": [
        7,
        8,
        9,
        10,
        11
      ],
      "matrix": [
        0.25367307662963867,
        0.0,
        -0.0,
        0.0,
        -0.0,
        0.0,
        -0.15251527726650238,
        0.0,
        0.0,
        0.2187078297138214,
        0.0,
        0.0,
        -0.015379570424556732,
        0.24290966987609863,
        -1.399245262145996,
        1.0
      ],
      "name": "top_4"
    },
    {
      "mesh": 2,
      "name": "Object_7"
    },
    {
      "mesh": 3,
      "name": "Object_8"
    },
    {
      "mesh": 4,
      "name": "Object_9"
    },
    {
      "mesh": 5,
      "name": "Object_10"
    },
    {
      "mesh": 6,
      "name": "Object_11"
    },
    {
      "children": [
        13
      ],
      "matrix": [
        0.876656711101532,
        0.0,
        0.0,
        0.0,
        0.0,
        0.9370006322860718,
        0.0,
        0.0,
        0.0,
        0.0,
        0.9007757902145386,
        0.0,
        0.0,
        -0.009525362402200699,
        -0.020261026918888092,
        1.0
      ],
      "name": "liquid_5"
    },
    {
      "mesh": 7,
      "name": "Object_13"
    },
    {
      "children": [
        15
      ],
      "matrix": [
        0.7176339626312256,
        0.0,
        0.0,
        0.0,
        0.0,
        0.4545280635356903,
        0.0,
        0.0,
        0.0,
        0.0,
        1.0,
        0.0,
        0.0,
        0.2624259293079376,
        -1.436267375946045,
        1.0
      ],
      "name": "Plane.003_6"
    },
    {
      "mesh": 8,
      "name": "Object_15"
    }
  ],
  "samplers": [
    {
      "magFilter": 9729,
      "minFilter": 9987,
      "wrapS": 10497,
      "wrapT": 10497
    }
  ],
  "scene": 0,
  "scenes": [
    {
      "name": "Sketchfab_Scene",
      "nodes": [
        0
      ]
    }
  ],
  "textures": [
    {
      "sampler": 0,
      "source": 0
    },
    {
      "sampler": 0,
      "source": 1
    }
  ]
}
